# xmcd
#
# Track frame offsets:
#	150
#	16062
#	36105
#	55342
#	70123
#	92131
#	112376
#	129054
#	146497
#	162830
#	182253
#	202658
#
# Disc length: 2914 seconds
# Revision: 0
# Processed by: cddbd v1.5.2PL0 Copyright (c) Steve Scherf et al.
# Submitted via: dBpowerAMP V12.0
#
DISCID=950b600c
DTITLE=Teresa James and The Rhythm Tramps - Come On Home
DYEAR=2012
DGENRE=Blues Female
TTITLE0=Come On Home
TTITLE1=If I Can't Have You
TTITLE2=My Baby Knows What I Want
TTITLE3=A Long Way From Texas
TTITLE4=Forgetting You
TTITLE5=I Still Got the Message
TTITLE6=She's Got a Way with Men
TTITLE7=That's Just Love
TTITLE8=Voodoo Doll
TTITLE9=Carry the Burden
TTITLE10=I Can Do Better
TTITLE11=All I Want To Do Is Dance
EXTD=
EXTT0=
EXTT1=
EXTT2=
EXTT3=
EXTT4=
EXTT5=
EXTT6=
EXTT7=
EXTT8=
EXTT9=
EXTT10=
EXTT11=
PLAYORDER=
